<?xml version="1.0" encoding="UTF-8" standalone="no"?>
<svg
   xmlns:dc="http://purl.org/dc/elements/1.1/"
   xmlns:cc="http://creativecommons.org/ns#"
   xmlns:rdf="http://www.w3.org/1999/02/22-rdf-syntax-ns#"
   xmlns:svg="http://www.w3.org/2000/svg"
   xmlns="http://www.w3.org/2000/svg"
   xmlns:sodipodi="http://sodipodi.sourceforge.net/DTD/sodipodi-0.dtd"
   xmlns:inkscape="http://www.inkscape.org/namespaces/inkscape"
   inkscape:version="1.0beta1 (32d4812, 2019-09-19)"
   inkscape:export-ydpi="51.237202"
   inkscape:export-xdpi="51.237202"
   inkscape:export-filename="/Users/Turing/Downloads/Logo.png"
   sodipodi:docname="logo.svg"
   id="svg196"
   version="1.1"
   viewBox="0 0 1594.1157 347.03439"
   height="347.03439pt"
   width="1594.1157pt">
  <metadata
     id="metadata202">
    <rdf:RDF>
      <cc:Work
         rdf:about="">
        <dc:format>image/svg+xml</dc:format>
        <dc:type
           rdf:resource="http://purl.org/dc/dcmitype/StillImage" />
        <dc:title></dc:title>
      </cc:Work>
    </rdf:RDF>
  </metadata>
  <defs
     id="defs200" />
  <sodipodi:namedview
     fit-margin-bottom="0"
     fit-margin-right="0"
     fit-margin-left="0"
     fit-margin-top="0"
     showguides="false"
     inkscape:document-rotation="0"
     inkscape:current-layer="svg196"
     inkscape:window-maximized="1"
     inkscape:window-y="23"
     inkscape:window-x="0"
     inkscape:cy="243.02706"
     inkscape:cx="888.45624"
     inkscape:zoom="0.35"
     showgrid="false"
     id="namedview198"
     inkscape:window-height="1035"
     inkscape:window-width="1868"
     inkscape:pageshadow="2"
     inkscape:pageopacity="0"
     guidetolerance="10"
     gridtolerance="10"
     objecttolerance="10"
     borderopacity="1"
     bordercolor="#666666"
     pagecolor="#ffffff" />
  <g
     transform="translate(-26.865637,-21.94453)"
     id="g950">
    <path
       inkscape:connector-curvature="0"
       style="fill:#0359a4;stroke-width:1.33333"
       d="M 797.51758,29.259766 C 782.98008,29.212891 768.39695,33.36 756.62695,42 739.25362,54.586667 728.8657,74.773385 724.3457,95.386719 c -5.34666,23.133331 -2.67945,47.119221 1.56055,70.199221 -12.41333,6.44 -25.2662,12.00044 -37.51953,18.78711 -18.14667,9.74666 -35.39942,22.41291 -46.7461,39.90625 -10.01333,15.65333 -17.08072,34.13494 -15.41406,52.98828 0.88,20.06666 8.26711,40.66573 23.78711,54.03906 17.57334,15.26667 41.90643,21.03932 64.75977,18.97266 25.89333,-1.70667 51.05299,-11.78638 70.98633,-28.37305 8.52,9.09333 17.9208,17.74805 29.49414,22.74805 19.13333,8.49333 42.29276,8.15967 60.74609,-2.01368 15.76,-8.61333 27.62659,-22.68075 37.91992,-37.10742 -3.53333,-3.29333 -7.10745,-6.51994 -10.80078,-9.61328 -6.29333,6.90667 -13.26604,13.78643 -22.35937,16.75977 -8.42667,2.92 -17.82636,1.54627 -25.67969,-2.40039 -12.54667,-6.26667 -21.45417,-17.62565 -29.1875,-28.95899 13.24,-19.84 26.33484,-39.80117 40.21484,-59.20117 7,-9.29333 14.03878,-18.86497 23.41211,-25.93164 6.12,-4.69333 13.76143,-6.5469 21.13477,-8.24023 0.0133,-3.89334 0.0127,-7.7743 -0.0274,-11.6543 -29.26666,0.0533 -58.53411,0.027 -87.80078,0.0137 -0.0133,3.86667 -0.0133,7.71927 0,11.58594 7.17334,1.57333 15.76141,2.33377 20.44141,8.78711 4.68,7.08 2.35825,16.14747 -0.45508,23.49414 -6.65333,16.09333 -17.2393,30.11922 -27.2793,44.19922 -6.18666,-9.88 -10.66648,-20.70578 -15.14648,-31.42578 -9.28,-23.38667 -17.02638,-47.60157 -20.37305,-72.60157 19.58667,-8.58666 38.85375,-19.01195 54.09375,-34.25195 10,-9.98667 17.89198,-22.66651 19.94531,-36.839844 2.37334,-15.133333 -2.26575,-31.346276 -12.73242,-42.599609 -7.68,-8.386667 -18.28005,-13.827604 -29.38672,-15.960938 -4.73,-0.936666 -9.57018,-1.417968 -14.41601,-1.433593 z m 3.00781,15.341796 c 2.71335,0.06696 5.40872,0.625912 7.90039,1.705079 6.08,2.786666 9.64117,9.053307 11.20117,15.30664 3.93334,15.76 0.97216,32.879505 -7.20117,46.826169 -8.50667,14.61334 -21.77195,25.92099 -36.25195,34.34766 -3.56,-22.68 -6.76091,-45.9731 -2.26758,-68.759766 1.74667,-8.253334 4.38646,-16.84 10.45313,-23 4.14333,-4.335834 10.19665,-6.573093 16.16601,-6.425782 z M 729.21289,185 c 5.68,27.32 13.20073,54.37299 24.41406,79.98633 5.96,13.85333 13.22542,27.08015 20.71875,40.16015 -12.84,7.42667 -27.21237,13.52105 -42.3457,12.73438 -13.53333,-0.34667 -26.5724,-7.01482 -35.03906,-17.52148 -12.09334,-14.84002 -17.25451,-34.79874 -15.20117,-53.71876 1.16,-12.76 5.28117,-25.4813 13.20117,-35.66796 C 703.8276,199.46599 716.31956,191.34667 729.21289,185 Z"
       transform="scale(0.75)"
       id="path4" />
    <path
       inkscape:connector-curvature="0"
       fill="#2b2728"
       d="m 29.58,80 c 33.14,0 66.28,0.01 99.42,0 -0.01,16.8 0,33.6 0,50.41 -1.39,0.03 -2.78,0.07 -4.17,0.1 -1.96,-10.5 -3.21,-21.77 -9.63,-30.68 C 109.91,92.48 100.7,89.39 92,88.79 87.21,88.56 82.21,88.04 77.55,89.5 c -3.72,1.47 -4.14,5.98 -4.23,9.44 -0.2,19.81 0.08,39.64 -0.14,59.45 7.13,0.46 14.87,-2.08 18.95,-8.25 5.72,-8.58 6.38,-19.21 7.89,-29.11 1.4,-0.02 2.8,-0.03 4.21,-0.04 -0.02,28.23 0.18,56.47 -0.1,84.7 -1.36,-0.01 -2.72,-0.02 -4.08,-0.03 -1.37,-10.4 -1.81,-21.72 -8.18,-30.55 -4.21,-5.88 -11.67,-8.09 -18.61,-8.17 0.01,19.69 -0.05,39.38 0.03,59.07 0.18,4.67 0.62,10.08 4.45,13.3 4.19,3.19 9.76,2.9 14.73,3.44 0.03,2.08 0.04,4.16 0.04,6.25 -20.98,0 -41.95,0 -62.93,0 -0.03,-2.05 -0.05,-4.09 -0.08,-6.14 4.12,-0.98 8.93,-1.08 12.07,-4.31 3.19,-3.69 3.3,-8.91 3.42,-13.54 0.01,-40.34 0.02,-80.69 0,-121.03 C 44.87,99.34 44.57,94.23 41.55,90.44 38.61,86.91 33.68,86.82 29.5,86.12 29.54,84.08 29.55,82.04 29.58,80 Z"
       id="path8" />
    <path
       inkscape:connector-curvature="0"
       style="fill:#2b2728;stroke-width:1.33333"
       d="m 1006.6387,106.625 c -5.78,-0.0441 -11.56972,0.10102 -17.30472,0.041 -17.18666,0.04 -34.35987,-0.0786 -51.5332,0.0547 0.0533,2.74667 0.0935,5.49357 0.16016,8.24024 5.13333,0.96 11.02508,1.46601 14.70508,5.66601 4.22666,4.93334 4.61463,11.82735 4.66796,18.02735 0,53.78666 0.0133,107.57304 0,161.37304 0.0133,6.74667 -0.77341,14.41357 -6.08007,19.24024 -3.58667,3.42666 -8.71972,3.95943 -13.37305,4.74609 -0.0133,2.65334 -0.0277,5.29393 -0.041,7.94727 24.28,0.0933 48.57386,-9.4e-4 72.86714,0.0391 22.7067,-0.28 45.3201,-10.54628 59.3868,-28.59961 16.36,-20.50667 22.946,-47.02643 24.746,-72.75977 1.8934,-28.44 -1.3869,-58.22721 -15.2402,-83.56054 -9.3733,-17.36 -25.3335,-31.35917 -44.4668,-36.8125 -9.2583,-2.96667 -18.8608,-3.56914 -28.4941,-3.64258 z m 3.3886,11.41797 c 6.9681,0.12729 13.9399,2.85206 19.1465,7.46289 10.5734,9.42667 15.5595,23.33463 19.1328,36.66797 7.08,29.37333 7.4666,59.94659 4.92,89.91992 -1.8134,17.24 -4.5996,35.06555 -13.5996,50.18555 -5.5067,9.41333 -15.1605,16.61336 -26.1739,17.69336 -5.1733,0.41333 -11.7057,1.08054 -15.34568,-3.43946 -3.06666,-4.38666 -2.88008,-10.02614 -3.08008,-15.13281 -0.0533,-56.49333 -3.3e-4,-112.98713 -0.0137,-169.48047 -0.17333,-4.65333 0.79969,-10.41304 5.67976,-12.37304 3,-1.08334 6.1666,-1.56177 9.3339,-1.50391 z"
       transform="scale(0.75)"
       id="path10" />
    <path
       inkscape:connector-curvature="0"
       style="fill:#2b2728;stroke-width:1.33333"
       d="m 238.49414,151.96094 c -14.01333,49.65333 -27.76172,99.37205 -41.76172,149.02539 -1.98666,6.46666 -3.59919,13.25291 -7.50586,18.90625 -1.92,2.88 -5.25375,4.11984 -8.09375,5.83984 -1,1.92 -0.31987,4.21492 -0.5332,6.29492 12.36,0.0267 24.72008,0.0397 37.08008,-0.0137 -0.0133,-2.16 -0.0261,-4.32013 -0.0527,-6.46679 -4.24,-0.73334 -9.10638,-0.90709 -12.37304,-4.09376 -2.73334,-2.78666 -2.9481,-7.03901 -2.13477,-10.65234 2.02667,-10.04 4.96063,-19.88138 7.64063,-29.74805 13.66666,-0.0133 27.33299,-0.0397 40.98632,0.0137 2.98667,9.90666 6.10761,19.82734 7.96094,30.02734 0.36,3.68 1.16047,8.13383 -1.51953,11.17383 -3.62667,2.64 -8.42763,2.39989 -12.6543,3.22656 -0.0133,2.16 -0.0137,4.31852 -0.0137,6.47852 19.78667,0.13333 39.58638,0.0677 59.37305,0.041 -0.4,-2.58666 0.45437,-6.77299 -3.26563,-6.98633 -5.14666,-1.2 -7.29315,-6.52086 -9.14648,-10.88086 -4.21333,-10.96 -7.2413,-22.31987 -10.66797,-33.5332 -12.66667,-42.86667 -25.45273,-85.69422 -38.05273,-128.57422 -1.76,-0.04 -3.51896,-0.0515 -5.26563,-0.0781 z m -8.26758,56.77148 c 0.21334,0.0533 0.62651,0.14784 0.83985,0.20117 5.86666,20.58667 12.01283,41.11909 17.82617,61.73243 -11.8,-0.0133 -23.59844,0.0279 -35.39844,-0.0254 5.62667,-20.62666 11.21242,-41.25486 16.73242,-61.9082 z"
       transform="scale(0.75)"
       id="path14" />
    <path
       inkscape:connector-curvature="0"
       fill="#2b2728"
       d="m 391.23,124.24 c 6.43,-8.76 18.5,-12 28.79,-9.4 4.96,1.04 9.14,4.15 13.99,5.44 3.7,0.62 4.3,-3.83 5.1,-6.39 1.29,-0.04 2.59,-0.08 3.89,-0.11 0,14.08 0,28.16 0,42.24 -1.26,-0.01 -2.51,-0.03 -3.76,-0.05 -1.92,-9.6 -5.07,-19.24 -11.06,-27.12 -3.76,-5.06 -9.64,-9.06 -16.16,-8.79 -5.87,0.22 -10.9,4.68 -12.67,10.14 -2.03,6.51 -2.06,14.08 1.2,20.2 4.7,7.31 12.77,11.35 19.51,16.5 6.36,4.91 14,8.57 18.66,15.35 7.47,10.43 9.63,23.9 8.04,36.43 -1.45,9.96 -5.47,20.11 -13.42,26.65 -8.38,6.93 -20.4,8.3 -30.58,5.07 -4.41,-1.26 -8.2,-4.19 -12.73,-5.02 -3.2,0.33 -3.27,4.26 -4.17,6.62 -1.29,0 -2.58,0 -3.86,0.01 0,-16.02 0,-32.03 0,-48.04 1.33,0 2.66,0.01 4,0.02 1.98,12.01 4.8,24.62 12.81,34.18 5.02,6.18 13.98,9.21 21.52,6.1 5.9,-2.41 8.93,-8.73 10.03,-14.66 1.66,-7.97 0.19,-17.22 -6.1,-22.87 -8.87,-7.97 -20.12,-12.92 -28.44,-21.57 -6.97,-6.95 -11.83,-16.19 -12.61,-26.08 -0.93,-11.98 0.69,-24.96 8.02,-34.85 z"
       id="path16" />
    <path
       inkscape:connector-curvature="0"
       style="fill:#2b2728;stroke-width:1.33333"
       d="m 1173.6797,151.90625 c -3.061,0.002 -6.1277,0.28469 -9.1602,0.86719 -12.08,2.14666 -23.0666,8.81411 -31.3066,17.80078 -14.4533,15.72 -21.3071,36.97224 -23.4805,57.8789 -2.0533,22.33334 -0.1062,45.50631 8.7871,66.29297 6.16,14.4 16.253,27.69477 30.293,35.13477 16.2667,8.76 37.0945,8.15911 52.8145,-1.57422 15.1866,-9.25333 25.1206,-25.1337 30.6406,-41.70703 6.9333,-21.28 7.9859,-44.25263 4.5859,-66.2793 -3.3067,-20.13333 -11.4806,-40.36117 -26.9473,-54.20117 -9.8041,-8.95917 -22.962,-14.22085 -36.2265,-14.21289 z m -0.4551,8.79687 c 4.5306,-0.11827 9.1066,1.29521 12.6816,4.10938 6.4801,5.06667 10.1468,12.78706 12.7735,20.40039 5.68,17.18667 7.0939,35.4274 7.5605,53.41406 0.1734,19.2 -0.3602,38.62604 -4.9336,57.35938 -2.48,9.58666 -6.0137,19.61458 -13.707,26.28125 -7.2533,6.41333 -18.9589,6.69148 -26.5723,0.77148 -6.36,-4.88 -10.0005,-12.35976 -12.5605,-19.75976 -4.72,-14.36 -6.1465,-29.5456 -6.8398,-44.57227 -0.72,-18.46667 -0.1862,-37.06698 2.8671,-55.32031 1.8934,-10.46667 4.4654,-21.09297 10.0254,-30.29297 2.9867,-4.85333 7.1743,-9.29424 12.6543,-11.26758 1.9417,-0.7 3.9915,-1.06929 6.0508,-1.12305 z"
       transform="scale(0.75)"
       id="path18"
       inkscape:export-filename="/Users/Turing/Downloads/path18.png"
       inkscape:export-xdpi="51.237202"
       inkscape:export-ydpi="51.237202" />
    <path
       inkscape:connector-curvature="0"
       fill="#2b2728"
       d="m 961.43,125.42 c 9.51,-9.3 24.17,-14.25 37.08,-9.79 5.86,1.83 10.8,5.71 16.53,7.8 4.09,0.5 5.15,-4.32 6.33,-7.23 0.42,-1.86 2.8,-0.99 4.16,-1.28 -0.01,15.01 -0.05,30.02 0.02,45.04 -1.17,0.08 -2.32,0.15 -3.47,0.23 -3.63,-11.63 -8.45,-23.35 -16.94,-32.32 -4.57,-4.89 -11.3,-8.49 -18.14,-7.06 -6.54,1.07 -11.36,6.4 -14.13,12.1 -4.14,8.46 -5.69,17.9 -6.76,27.17 -1.52,16.11 -1.63,32.43 0.57,48.49 1.43,9.38 3.51,19.38 10.15,26.58 5.1,5.76 13.29,8.89 20.85,6.69 11.94,-2.94 19.68,-13.43 26.16,-23.11 1.37,1.55 2.74,3.11 4.15,4.65 -5.4,9.05 -11.78,18.03 -20.81,23.77 -10.48,6.68 -24.25,6.09 -35.26,1.04 -11.83,-5.51 -20.04,-16.65 -24.76,-28.52 -6.44,-16.32 -7.67,-34.37 -5.34,-51.65 2.25,-15.62 8.07,-31.43 19.61,-42.6 z"
       id="path20" />
    <path
       inkscape:connector-curvature="0"
       fill="#2b2728"
       d="m 1559.57,121.57 c 8.1,-8.16 21.41,-9.62 31.68,-4.95 3.21,1.23 6.16,3.49 9.69,3.71 3.11,-0.34 3.3,-4.12 4.17,-6.44 1.27,-0.04 2.57,-0.08 3.89,-0.12 0,14.09 0,28.17 0,42.25 -1.27,-0.01 -2.52,-0.03 -3.76,-0.04 -1.82,-9.16 -4.78,-18.3 -10.2,-25.99 -3.34,-4.76 -8.19,-8.91 -14.12,-9.76 -5.25,-0.95 -10.8,1.64 -13.64,6.1 -3.66,5.64 -3.86,12.83 -2.6,19.24 1.16,5.82 5.76,10.04 10.32,13.43 7.33,5.36 14.81,10.51 22.21,15.77 7.32,5.1 11.87,13.34 14.19,21.8 2.9,11.12 2.49,23.2 -1.72,33.94 -2.54,6.55 -6.74,12.62 -12.65,16.53 -8.26,5.48 -19.08,6.3 -28.39,3.32 -4.37,-1.27 -8.13,-4.15 -12.61,-4.98 -3.21,0.33 -3.28,4.27 -4.18,6.62 -1.3,0.02 -2.58,0.03 -3.85,0.04 0,-16.02 0,-32.04 0,-48.07 1.31,0 2.64,0 3.99,0.01 1.61,10 3.88,20.15 9.08,28.97 2.87,4.88 6.94,9.4 12.37,11.4 5.83,2.14 13.17,1.39 17.58,-3.31 4.42,-4.85 5.93,-11.67 5.96,-18.07 0,-6.26 -2.41,-12.6 -7.23,-16.72 -8.29,-7.2 -18.43,-11.97 -26.39,-19.58 -5.85,-5.49 -10.62,-12.35 -12.78,-20.14 -1.8,-6.37 -1.86,-13.08 -1.34,-19.62 0.95,-9.15 3.72,-18.64 10.33,-25.34 z"
       id="path22" />
    <path
       inkscape:connector-curvature="0"
       fill="#2b2728"
       d="m 235.99,116.99 c 16.01,-0.04 32.01,-0.04 48.01,0 0,1.62 0,3.25 0,4.88 -3.44,0.4 -7.43,0.43 -9.98,3.15 -2.66,2.94 -2.93,7.17 -3.01,10.94 -0.02,31.36 -0.02,62.72 0,94.08 0.08,3.75 0.29,8.01 3.04,10.88 2.61,2.58 6.54,2.62 9.95,3.19 0,1.63 0,3.27 0.01,4.9 -16.01,0.04 -32.01,0.04 -48.02,0 0,-1.63 0.01,-3.26 0.01,-4.88 3.33,-0.7 7.16,-0.86 9.72,-3.39 2.72,-2.82 2.91,-7.03 3.02,-10.72 0.01,-31.03 -0.01,-62.05 0.01,-93.07 -0.07,-4.02 -0.15,-8.56 -2.99,-11.72 -2.47,-2.72 -6.39,-2.85 -9.76,-3.35 0,-1.64 -0.01,-3.27 -0.01,-4.89 z"
       id="path24" />
    <path
       inkscape:connector-curvature="0"
       fill="#2b2728"
       d="m 290.39,117.02 c 27.5,-0.05 55.01,-0.01 82.51,-0.02 0.15,13.09 0.12,26.17 0.21,39.26 -1.31,-0.02 -2.62,-0.03 -3.92,-0.05 -0.98,-9.23 -2.53,-19.26 -9.04,-26.37 -4.32,-4.79 -10.98,-6.19 -17.15,-6.55 0.01,34.91 -0.03,69.82 0.02,104.74 0.2,4.19 0.13,8.79 2.53,12.43 2.57,3.23 7.15,3.02 10.85,3.63 0.02,1.64 0.04,3.28 0.05,4.93 -16.42,-0.01 -32.84,0.08 -49.26,-0.04 0.01,-1.62 0.01,-3.23 0.02,-4.84 3.95,-0.77 9.04,-0.61 11.41,-4.49 2.33,-4.48 1.98,-9.74 2.13,-14.63 -0.12,-33.95 0.21,-67.9 -0.17,-101.85 -6.07,0.61 -12.62,1.77 -17.05,6.36 -6.86,7.07 -8.43,17.32 -9.53,26.69 -1.33,0.02 -2.67,0.03 -4,0.04 0.08,-13.08 0.32,-26.16 0.39,-39.24 z"
       id="path26" />
    <path
       inkscape:connector-curvature="0"
       fill="#2b2728"
       d="m 1034.99,116.99 c 15.42,-0.04 30.84,-0.03 46.26,0 -0.01,1.62 -0.02,3.25 -0.01,4.88 -3.69,0.49 -8.34,0.26 -10.68,3.72 -2.44,3.99 -2.38,8.88 -2.55,13.4 -0.03,19.01 0,38.01 -0.01,57.01 0.1,11.03 -0.6,22.39 2.95,33 1.79,5.54 5.59,10.93 11.4,12.65 7.43,2.06 16.2,-0.05 21.24,-6.08 6.95,-8.48 7.92,-20.02 8.36,-30.55 0.11,-21.68 0.04,-43.36 0.03,-65.04 -0.2,-4.69 -0.16,-9.9 -3.15,-13.8 -2.44,-3.11 -6.56,-3.81 -10.22,-4.33 -0.05,-1.62 -0.07,-3.25 -0.07,-4.87 10.07,0.01 20.14,-0.09 30.21,0.06 -0.03,1.58 -0.03,3.15 -0.01,4.73 -3.24,1.02 -7.14,1.86 -8.8,5.18 -2.01,4.02 -1.87,8.66 -1.94,13.03 -0.02,21.35 0.03,42.69 -0.02,64.04 -0.43,9.51 -1.51,19.14 -4.75,28.15 -2.99,8.37 -10.13,14.85 -18.44,17.75 -7.87,2.95 -16.69,2.57 -24.59,-0.03 -11.6,-3.83 -20.12,-14.65 -22.46,-26.46 -1.77,-8.69 -1.49,-17.61 -1.52,-26.43 -0.02,-19.33 0.03,-38.65 -0.02,-57.98 -0.18,-4.37 -0.01,-9.06 -2.18,-13.02 -1.82,-3.19 -5.83,-3.42 -9.02,-4.14 -0.01,-1.63 -0.02,-3.25 -0.01,-4.87 z"
       id="path28" />
    <path
       inkscape:connector-curvature="0"
       fill="#2b2728"
       d="m 1133.99,116.99 c 11.63,-0.04 23.25,-0.05 34.88,0.01 9.11,30.66 18.19,61.34 27.48,91.95 8.91,-30.66 18.35,-61.17 27.23,-91.84 11.58,-0.31 23.16,-0.08 34.74,-0.13 -0.02,1.62 -0.03,3.24 -0.04,4.87 -3.34,0.61 -7.54,0.7 -9.5,3.96 -2.5,4.24 -2.36,9.38 -2.51,14.14 -0.02,28.7 -0.03,57.4 0.01,86.1 0.16,4.54 -0.12,9.45 2.18,13.55 2.1,3.29 6.35,3.62 9.81,4.48 0.01,1.64 0.03,3.29 0.06,4.94 -15.2,0.02 -30.39,0.03 -45.59,-0.01 -0.01,-1.63 0,-3.25 0.03,-4.87 3.51,-0.79 7.93,-0.86 10.15,-4.19 2.46,-4.19 1.99,-9.29 2.08,-13.96 -0.13,-31.7 0.26,-63.42 -0.2,-95.12 -11.31,39.4 -23.01,78.68 -34.3,118.08 -1.35,0.01 -2.68,0.01 -4,0 -11.31,-38.4 -22.95,-76.69 -34.31,-115.07 -0.44,29.7 -0.07,59.42 -0.19,89.12 0.14,5.44 -0.26,11.41 2.76,16.22 2.46,3.68 7.2,4.3 11.23,4.96 0,1.6 0,3.21 0.02,4.82 -10.76,0.06 -21.52,0.04 -32.28,0.01 0,-1.63 0.02,-3.26 0.06,-4.89 3.54,-0.76 7.76,-1.07 10.19,-4.14 2.47,-3.47 2.07,-7.97 2.23,-12 0.01,-30.65 0.02,-61.31 0,-91.97 -0.13,-3.63 0,-7.78 -2.56,-10.68 -2.49,-2.61 -6.33,-2.83 -9.65,-3.48 -0.01,-1.62 -0.02,-3.24 -0.01,-4.86 z"
       id="path30" />
    <path
       inkscape:connector-curvature="0"
       fill="#2b2728"
       d="m 1262.97,116.98 c 26.53,0.01 53.06,-0.09 79.59,0.05 -0.06,13.02 -0.08,26.04 0,39.05 -1.19,0.08 -2.36,0.15 -3.52,0.21 -1.32,-8.86 -2.74,-18.48 -8.92,-25.42 -5.55,-6.12 -14.36,-7.11 -22.14,-7.15 -2.91,0.14 -6.24,-0.3 -8.69,1.57 -2.05,1.95 -1.89,5.04 -2.02,7.63 -0.04,15.05 0,30.09 -0.02,45.14 5.7,0.01 12.16,-1.12 15.74,-6.05 4.76,-6.63 5.62,-15.08 6.44,-22.97 1.17,-0.04 2.36,-0.07 3.57,-0.1 0,22.04 0,44.08 0,66.12 -1.21,-0.03 -2.4,-0.07 -3.57,-0.11 -0.69,-8.21 -1.47,-17.06 -6.43,-23.96 -3.59,-4.91 -10.01,-6.28 -15.75,-6.23 0.05,16.11 -0.07,32.21 0.05,48.32 -0.1,3.69 1.17,8.31 5.34,9.18 10.27,2.15 21.9,-0.62 29.23,-8.4 6.8,-7.05 10.43,-16.41 13.34,-25.6 1.27,0.01 2.55,0.01 3.85,0.02 -1.69,13.58 -3.72,27.11 -5.39,40.68 -26.9,0.09 -53.8,0.01 -80.7,0.04 -0.02,-1.63 -0.01,-3.26 0.02,-4.88 3.26,-0.75 7.17,-0.86 9.54,-3.59 2.31,-2.95 2.39,-6.92 2.47,-10.49 0,-29.68 0,-59.36 0,-89.04 -0.12,-5 0.55,-10.44 -2.09,-14.94 -2.07,-3.41 -6.4,-3.69 -9.93,-4.2 -0.02,-1.63 -0.03,-3.25 -0.01,-4.88 z"
       id="path32" />
    <path
       inkscape:connector-curvature="0"
       fill="#2b2728"
       d="m 1355.23,117.06 c 9.52,-0.12 19.05,-0.21 28.58,0.01 2.26,1.79 3.08,4.98 4.74,7.37 14.48,25.24 28.84,50.55 43.4,75.76 0.11,-20.08 0.04,-40.15 0.03,-60.23 -0.2,-4.67 -0.18,-9.87 -3.19,-13.74 -2.29,-2.97 -6.16,-3.69 -9.59,-4.46 -0.01,-1.58 -0.02,-3.16 -0.01,-4.74 9.85,-0.1 19.7,-0.11 29.55,0.01 -0.02,1.56 -0.01,3.13 0.02,4.7 -4.48,1 -9.74,3.22 -10.24,8.46 -1.09,9.55 -0.27,19.21 -0.52,28.8 0,31 0,62 0,93 -1.31,0 -2.6,0 -3.87,0 -20.39,-35.08 -40.53,-70.3 -61.06,-105.3 -0.16,26.1 -0.04,52.2 -0.06,78.31 0.16,4.78 0.05,10.02 2.83,14.16 2.27,3.35 6.5,4.11 10.16,5 -0.01,1.61 -0.02,3.22 0.01,4.84 -10.35,0.04 -20.7,0.03 -31.05,0.01 -0.01,-1.63 0,-3.26 0.03,-4.88 3.63,-0.9 8.16,-1.4 10.12,-5.1 2.21,-4.31 1.81,-9.35 1.89,-14.05 -0.09,-29.62 0.18,-59.25 -0.13,-88.87 -2.97,-5.4 -5.85,-11.67 -11.58,-14.64 -0.03,-1.48 -0.06,-2.95 -0.06,-4.42 z"
       id="path34" />
    <path
       inkscape:connector-curvature="0"
       fill="#2b2728"
       d="m 1456.39,117.02 c 27.5,-0.05 55.01,-0.01 82.51,-0.02 0.15,13.09 0.12,26.17 0.21,39.26 -1.33,-0.02 -2.63,-0.03 -3.92,-0.04 -0.98,-9.24 -2.53,-19.27 -9.04,-26.38 -4.33,-4.79 -10.98,-6.19 -17.15,-6.55 0,30.24 0,60.47 0,90.71 0.35,8.16 -0.99,16.63 1.5,24.54 1.68,4.92 7.62,4.99 11.9,5.55 0.01,1.64 0.02,3.28 0.05,4.93 -16.42,-0.01 -32.84,0.08 -49.26,-0.04 -0.01,-1.62 0,-3.23 0.02,-4.84 4.35,-0.72 10.32,-0.83 12.06,-5.81 2.14,-6.55 1.27,-13.56 1.47,-20.33 -0.11,-31.61 0.22,-63.23 -0.16,-94.83 -6.08,0.62 -12.63,1.77 -17.05,6.36 -6.86,7.07 -8.43,17.32 -9.53,26.7 -1.35,0.01 -2.68,0.02 -4,0.03 0.08,-13.08 0.32,-26.16 0.39,-39.24 z"
       id="path36" />
    <path
       inkscape:connector-curvature="0"
       fill="#0359a4"
       d="m 26.93,327.18 c 531.34,-0.01 1062.68,0 1594.02,-0.01 0.05,13.93 0.03,27.86 0.01,41.79 -531.35,0.03 -1062.71,0.02 -1594.06,0 -0.02,-13.93 -0.08,-27.86 0.03,-41.78 z"
       id="path44" />
  </g>
</svg>
